# xmcd CD database file
#
# Track frame offsets:
#	150
#	19835
#	37212
#	58820
#	80590
#	102870
#	121615
#	142145
#	162405
#	179720
#
# Disc length: 2691 seconds
#
# Revision: 0
# Processed by: cddbd v1.4PL0 Copyright (c) Steve Scherf et al.
# Submitted via: CDex 1.40Release
#
DISCID=8f0a810a
DTITLE=Simon climie - Soul inspiration
DYEAR=1992
DGENRE=Blues
TTITLE0=Soul Inspiration
TTITLE1=Does Your Heart Still Brek
TTITLE2=Love In THe Right Hands
TTITLE3=Dream With Me
TTITLE4=Oh How The Yaers Go By
TTITLE5=Don`t Give Up So Easy
TTITLE6=Spell
TTITLE7=Don`t Waste Time (Make Your Move)
TTITLE8=Losing You
TTITLE9=Life Goes On
EXTD=YEAR: 1992 ID3G: 0
EXTT0=
EXTT1=
EXTT2=
EXTT3=
EXTT4=
EXTT5=
EXTT6=
EXTT7=
EXTT8=
EXTT9=
PLAYORDER=
